<mxfile host="app.diagrams.net" agent="Mozilla/5.0 (Windows NT 10.0; Win64; x64) AppleWebKit/537.36 (KHTML, like Gecko) Chrome/130.0.0.0 Safari/537.36 Edg/130.0.0.0" border="50" scale="3" compressed="false" locked="false" version="24.8.3">
  <diagram name="Blank" id="YmL12bMKpDGza6XwsDPr">
    <mxGraphModel dx="1022" dy="572" grid="0" gridSize="10" guides="1" tooltips="1" connect="1" arrows="1" fold="1" page="0" pageScale="1" pageWidth="827" pageHeight="1169" background="none" math="1" shadow="0">
      <root>
        <mxCell id="X5NqExCQtvZxIxQ7pmgY-0" />
        <mxCell id="1" parent="X5NqExCQtvZxIxQ7pmgY-0" />
        <mxCell id="Fy2plHTdan9sPoVwwzyH-1" value="数据准备与清洗" style="rounded=0;whiteSpace=wrap;html=1;" vertex="1" parent="1">
          <mxGeometry x="169" y="201" width="120" height="60" as="geometry" />
        </mxCell>
        <mxCell id="Fy2plHTdan9sPoVwwzyH-3" value="" style="endArrow=classic;html=1;rounded=0;exitX=0.5;exitY=1;exitDx=0;exitDy=0;" edge="1" parent="1" source="Fy2plHTdan9sPoVwwzyH-1" target="Fy2plHTdan9sPoVwwzyH-4">
          <mxGeometry width="50" height="50" relative="1" as="geometry">
            <mxPoint x="385" y="347" as="sourcePoint" />
            <mxPoint x="323" y="333" as="targetPoint" />
          </mxGeometry>
        </mxCell>
        <mxCell id="Fy2plHTdan9sPoVwwzyH-6" value="" style="edgeStyle=orthogonalEdgeStyle;rounded=0;orthogonalLoop=1;jettySize=auto;html=1;" edge="1" parent="1" source="Fy2plHTdan9sPoVwwzyH-4" target="Fy2plHTdan9sPoVwwzyH-5">
          <mxGeometry relative="1" as="geometry" />
        </mxCell>
        <mxCell id="Fy2plHTdan9sPoVwwzyH-4" value="数据库设计与导入" style="rounded=0;whiteSpace=wrap;html=1;" vertex="1" parent="1">
          <mxGeometry x="169" y="317.9999999999999" width="120" height="60" as="geometry" />
        </mxCell>
        <mxCell id="Fy2plHTdan9sPoVwwzyH-8" value="" style="edgeStyle=orthogonalEdgeStyle;rounded=0;orthogonalLoop=1;jettySize=auto;html=1;" edge="1" parent="1" source="Fy2plHTdan9sPoVwwzyH-5" target="Fy2plHTdan9sPoVwwzyH-7">
          <mxGeometry relative="1" as="geometry" />
        </mxCell>
        <mxCell id="Fy2plHTdan9sPoVwwzyH-5" value="后端开发" style="rounded=0;whiteSpace=wrap;html=1;" vertex="1" parent="1">
          <mxGeometry x="169" y="481.9999999999999" width="120" height="60" as="geometry" />
        </mxCell>
        <mxCell id="Fy2plHTdan9sPoVwwzyH-10" value="" style="edgeStyle=orthogonalEdgeStyle;rounded=0;orthogonalLoop=1;jettySize=auto;html=1;" edge="1" parent="1" source="Fy2plHTdan9sPoVwwzyH-7" target="Fy2plHTdan9sPoVwwzyH-9">
          <mxGeometry relative="1" as="geometry" />
        </mxCell>
        <mxCell id="Fy2plHTdan9sPoVwwzyH-7" value="前端设计" style="rounded=0;whiteSpace=wrap;html=1;" vertex="1" parent="1">
          <mxGeometry x="457" y="481.9999999999999" width="120" height="60" as="geometry" />
        </mxCell>
        <mxCell id="Fy2plHTdan9sPoVwwzyH-12" value="" style="edgeStyle=orthogonalEdgeStyle;rounded=0;orthogonalLoop=1;jettySize=auto;html=1;" edge="1" parent="1" source="Fy2plHTdan9sPoVwwzyH-9" target="Fy2plHTdan9sPoVwwzyH-11">
          <mxGeometry relative="1" as="geometry" />
        </mxCell>
        <mxCell id="Fy2plHTdan9sPoVwwzyH-9" value="全文检索功能导入" style="rounded=0;whiteSpace=wrap;html=1;" vertex="1" parent="1">
          <mxGeometry x="740" y="481.9999999999999" width="120" height="60" as="geometry" />
        </mxCell>
        <mxCell id="Fy2plHTdan9sPoVwwzyH-14" value="" style="edgeStyle=orthogonalEdgeStyle;rounded=0;orthogonalLoop=1;jettySize=auto;html=1;" edge="1" parent="1" source="Fy2plHTdan9sPoVwwzyH-11" target="Fy2plHTdan9sPoVwwzyH-13">
          <mxGeometry relative="1" as="geometry" />
        </mxCell>
        <mxCell id="Fy2plHTdan9sPoVwwzyH-11" value="系统测试与优化" style="rounded=0;whiteSpace=wrap;html=1;" vertex="1" parent="1">
          <mxGeometry x="740" y="325.9999999999999" width="120" height="60" as="geometry" />
        </mxCell>
        <mxCell id="Fy2plHTdan9sPoVwwzyH-13" value="部署与维护" style="rounded=0;whiteSpace=wrap;html=1;" vertex="1" parent="1">
          <mxGeometry x="740" y="193.9999999999999" width="120" height="60" as="geometry" />
        </mxCell>
        <mxCell id="Fy2plHTdan9sPoVwwzyH-24" style="edgeStyle=orthogonalEdgeStyle;rounded=0;orthogonalLoop=1;jettySize=auto;html=1;" edge="1" parent="1" source="Fy2plHTdan9sPoVwwzyH-15">
          <mxGeometry relative="1" as="geometry">
            <mxPoint x="1433.8915405273438" y="486" as="targetPoint" />
          </mxGeometry>
        </mxCell>
        <mxCell id="Fy2plHTdan9sPoVwwzyH-15" value="后端接口" style="rounded=0;whiteSpace=wrap;html=1;" vertex="1" parent="1">
          <mxGeometry x="1549" y="456" width="120" height="60" as="geometry" />
        </mxCell>
        <mxCell id="Fy2plHTdan9sPoVwwzyH-17" value="数据库" style="shape=cylinder3;whiteSpace=wrap;html=1;boundedLbl=1;backgroundOutline=1;size=15;" vertex="1" parent="1">
          <mxGeometry x="1579" y="153" width="60" height="80" as="geometry" />
        </mxCell>
        <mxCell id="Fy2plHTdan9sPoVwwzyH-22" style="edgeStyle=orthogonalEdgeStyle;rounded=0;orthogonalLoop=1;jettySize=auto;html=1;exitX=0.5;exitY=1;exitDx=0;exitDy=0;entryX=1;entryY=0.5;entryDx=0;entryDy=0;" edge="1" parent="1" source="Fy2plHTdan9sPoVwwzyH-20" target="Fy2plHTdan9sPoVwwzyH-15">
          <mxGeometry relative="1" as="geometry" />
        </mxCell>
        <mxCell id="Fy2plHTdan9sPoVwwzyH-20" value="ES" style="ellipse;whiteSpace=wrap;html=1;aspect=fixed;" vertex="1" parent="1">
          <mxGeometry x="1780" y="280" width="91" height="91" as="geometry" />
        </mxCell>
        <mxCell id="Fy2plHTdan9sPoVwwzyH-26" value="" style="edgeStyle=orthogonalEdgeStyle;rounded=0;orthogonalLoop=1;jettySize=auto;html=1;" edge="1" parent="1" source="Fy2plHTdan9sPoVwwzyH-23" target="Fy2plHTdan9sPoVwwzyH-15">
          <mxGeometry relative="1" as="geometry" />
        </mxCell>
        <mxCell id="Fy2plHTdan9sPoVwwzyH-23" value="前端" style="rounded=0;whiteSpace=wrap;html=1;" vertex="1" parent="1">
          <mxGeometry x="1310" y="456" width="120" height="60" as="geometry" />
        </mxCell>
        <mxCell id="Fy2plHTdan9sPoVwwzyH-25" style="edgeStyle=orthogonalEdgeStyle;rounded=0;orthogonalLoop=1;jettySize=auto;html=1;exitX=0.5;exitY=0;exitDx=0;exitDy=0;entryX=1;entryY=0.5;entryDx=0;entryDy=0;entryPerimeter=0;" edge="1" parent="1" source="Fy2plHTdan9sPoVwwzyH-20" target="Fy2plHTdan9sPoVwwzyH-17">
          <mxGeometry relative="1" as="geometry" />
        </mxCell>
        <mxCell id="Fy2plHTdan9sPoVwwzyH-27" style="rounded=0;orthogonalLoop=1;jettySize=auto;html=1;entryX=0.5;entryY=1;entryDx=0;entryDy=0;entryPerimeter=0;shape=link;" edge="1" parent="1" source="Fy2plHTdan9sPoVwwzyH-15" target="Fy2plHTdan9sPoVwwzyH-17">
          <mxGeometry relative="1" as="geometry" />
        </mxCell>
      </root>
    </mxGraphModel>
  </diagram>
</mxfile>
